<?xml version="1.0" encoding="utf-8"?>
<!-- Generator: Adobe Illustrator 27.5.0, SVG Export Plug-In . SVG Version: 6.00 Build 0)  -->
<svg version="1.1" xmlns="http://www.w3.org/2000/svg" xmlns:xlink="http://www.w3.org/1999/xlink" x="0px" y="0px"
	 viewBox="0 0 500 500" style="enable-background:new 0 0 500 500;" xml:space="preserve">
<g id="BACKGROUND">
	<rect style="fill:#FEFEFE;" width="500" height="500"/>
</g>
<g id="OBJECTS">
	<g>
		<defs>
			<path id="SVGID_1_" d="M50.801,178.922c1.165-26.456,8.631-52.053,25.151-75.634C138.08,14.606,293.31,16.501,379.098,66.161
				c25.759,14.911,47.896,37.813,56.721,66.18c7.128,22.912,5.221,47.47,5.039,71.454c-0.205,27.041,5.448,47.084,16.323,71.326
				c8.704,19.403,10.491,42.485,6.905,63.252c-7.78,45.061-40.904,81.588-80.6,102.35c-63.092,32.999-163.085,33.625-239.924,14.87
				c-38.834-9.479-75.899-28.758-94.708-55.955C33.888,378,31.617,353.217,36.461,330.38c3.895-18.362,13.045-34.783,20.703-52.107
				c6.139-13.887,3.581-25.94-0.041-41.013C52.413,217.658,49.958,198.065,50.801,178.922z"/>
		</defs>
		<clipPath id="SVGID_00000039100603958908816630000006574884523458730151_">
			<use xlink:href="#SVGID_1_"  style="overflow:visible;"/>
		</clipPath>
		<g style="clip-path:url(#SVGID_00000039100603958908816630000006574884523458730151_);">
			<rect x="15.696" y="15.469" style="fill:#DAECF7;" width="468.665" height="468.664"/>
		</g>
	</g>
	<path style="fill:#FEFEFE;" d="M352.558,319.995h96.792c0,0-0.366-4.574-8.051-4.208c-0.366-7.502-10.978-12.076-17.931-6.038
		c5.123-12.625,2.013-21.956-6.77-22.871c-8.783-0.915-14.638,8.234-16.284,13.906c-5.306-5.672-6.404-0.915-6.587,0
		c-8.051-8.783-18.846-5.855-22.14-2.379c-3.294,3.476-2.561,11.71-2.561,11.71s-11.527-4.94-14.089,0.366
		c-2.562,5.306,2.013,7.136,2.013,7.136S353.107,316.884,352.558,319.995z"/>
	<path style="fill:#FEFEFE;" d="M47.034,357.107h51.819c0,0-0.196-2.449-4.31-2.253c-0.196-4.016-5.877-6.465-9.6-3.233
		c2.743-6.759,1.078-11.755-3.624-12.245c-4.702-0.49-7.837,4.408-8.718,7.445c-2.841-3.037-3.429-0.49-3.526,0
		c-4.31-4.702-10.09-3.135-11.853-1.273c-1.763,1.861-1.371,6.269-1.371,6.269s-6.171-2.645-7.543,0.196
		c-1.371,2.841,1.078,3.82,1.078,3.82S47.328,355.442,47.034,357.107z"/>
	<polygon style="opacity:0.11;fill:#19657C;" points="413.973,373.22 413.973,371.759 410.852,371.759 410.852,363.303 
		410.177,363.303 410.177,371.759 401.582,371.759 401.582,373.22 398.906,373.22 398.906,367.724 394.923,367.724 394.923,373.22 
		390.833,373.22 390.833,374.494 390.833,375.545 390.833,376.642 392.104,376.642 392.104,378.708 392.104,381.544 
		392.104,382.908 392.104,386.121 392.104,387.484 392.104,390.697 392.104,392.06 392.104,393.156 383.36,393.156 383.36,392.766 
		383.36,391.088 383.36,389.209 383.36,387.531 383.36,385.652 383.36,383.974 383.36,382.095 383.36,380.417 383.36,378.537 
		383.36,376.859 383.36,374.98 383.36,373.302 383.36,371.423 383.36,369.745 383.36,367.865 383.36,366.187 383.36,364.308 
		383.36,362.63 383.36,360.751 383.36,359.073 383.36,357.194 383.36,355.516 383.36,353.636 383.36,351.958 383.36,350.079 
		383.36,348.401 383.36,346.522 383.36,344.844 383.36,342.964 383.36,341.286 383.36,339.407 383.36,337.729 383.36,335.85 
		383.36,334.172 383.36,332.293 383.36,330.615 383.36,328.735 383.36,327.057 383.36,325.178 383.36,322.739 380.167,322.739 
		380.167,319.847 354.258,319.847 354.258,322.739 351.202,322.739 351.202,325.178 351.202,327.057 351.202,328.735 
		351.202,330.615 351.202,332.293 351.202,334.172 351.202,335.85 351.202,337.729 351.202,339.407 351.202,341.286 
		351.202,342.964 351.202,344.844 351.202,346.522 351.202,348.401 351.202,350.079 351.202,351.958 351.202,353.636 
		351.202,355.516 351.202,357.194 351.202,359.073 351.202,360.751 351.202,362.63 351.202,364.308 351.202,366.187 
		351.202,367.865 351.202,369.745 351.202,371.423 351.202,373.302 351.202,374.98 351.202,376.859 351.202,378.537 
		351.202,380.417 351.202,382.095 351.202,383.974 351.202,385.652 351.202,387.531 351.202,389.209 351.202,391.088 
		351.202,392.766 351.202,393.156 339.398,393.156 339.398,358.043 339.398,353.675 339.398,351.474 339.398,350.896 
		321.824,350.896 321.824,340.44 319.334,340.44 319.334,350.896 313.183,350.896 313.183,345.587 302.346,345.587 302.346,350.896 
		296.341,350.896 296.341,351.474 296.341,353.675 296.341,358.043 296.341,393.156 289.721,393.156 289.721,392.534 
		289.721,388.992 289.721,385.387 289.721,381.846 289.721,378.24 289.721,374.699 289.721,371.093 289.721,367.552 
		289.721,363.947 289.721,360.405 289.721,356.8 289.721,353.258 289.721,349.653 289.721,346.111 289.721,342.506 289.721,338.965 
		289.721,335.359 289.721,331.818 289.721,328.212 289.721,324.671 289.721,321.065 289.721,317.524 289.721,313.918 
		289.721,310.377 289.721,306.772 289.721,303.23 289.721,299.329 285.632,299.329 285.632,295.59 279.588,295.59 279.588,284.306 
		277.454,284.306 277.454,295.59 267.022,295.59 267.022,291.955 257.72,291.955 257.72,295.59 252.793,295.59 252.793,299.329 
		248.476,299.329 248.476,303.23 248.476,306.772 248.476,310.377 248.476,313.918 248.476,317.524 248.476,321.065 
		248.476,324.671 248.476,328.212 248.476,331.818 248.476,335.359 248.476,338.965 248.476,339.034 229.497,339.034 
		229.497,326.944 226.619,326.944 226.619,339.034 219.506,339.034 219.506,332.896 206.975,332.896 206.975,339.034 
		200.032,339.034 200.032,339.703 200.032,342.248 200.032,347.298 200.032,393.156 195.777,393.156 195.777,391.202 
		195.777,388.983 195.777,386.497 195.777,384.279 195.777,381.793 195.777,379.574 195.777,377.089 195.777,374.87 
		195.777,372.385 195.777,370.166 195.777,367.681 195.777,365.462 195.777,362.977 195.777,360.758 195.777,358.273 
		195.777,356.054 195.777,353.569 195.777,351.349 195.777,348.864 195.777,346.646 195.777,344.16 195.777,341.941 
		195.777,339.456 195.777,337.237 195.777,334.752 195.777,332.533 195.777,330.048 195.777,327.829 195.777,325.344 
		195.777,323.125 195.777,320.639 195.777,318.421 195.777,315.935 195.777,313.716 195.777,311.231 195.777,309.012 
		195.777,306.527 195.777,304.308 195.777,301.823 195.777,299.604 195.777,297.119 195.777,294.9 195.777,292.415 195.777,289.19 
		191.554,289.19 191.554,285.366 157.292,285.366 157.292,289.19 153.252,289.19 153.252,292.415 153.252,294.9 153.252,297.119 
		153.252,299.604 153.252,301.823 153.252,304.308 153.252,306.527 153.252,309.012 153.252,311.231 153.252,313.716 
		153.252,315.935 153.252,318.421 153.252,320.639 153.252,323.125 153.252,325.344 153.252,327.829 153.252,330.048 
		153.252,332.533 153.252,334.752 153.252,337.237 153.252,339.456 153.252,341.941 153.252,344.16 153.252,346.646 
		153.252,348.864 153.252,351.349 153.252,353.569 153.252,356.054 153.252,358.273 153.252,360.758 153.252,362.977 
		153.252,365.462 153.252,367.681 153.252,370.166 153.252,372.385 153.252,374.87 153.252,377.089 153.252,379.574 
		153.252,381.793 153.252,384.279 153.252,386.497 153.252,388.983 153.252,391.202 153.252,393.156 145.713,393.156 
		145.713,391.788 145.713,387.614 145.713,385.843 145.713,381.668 145.713,379.898 145.713,375.723 145.713,373.952 
		145.713,369.778 145.713,368.007 145.713,364.323 145.713,361.638 147.365,361.638 147.365,360.213 147.365,358.848 
		147.365,357.192 143.639,357.192 143.639,355.294 139.585,355.294 139.585,344.309 138.708,344.309 138.708,355.294 
		127.542,355.294 127.542,357.192 124.065,357.192 124.065,350.052 118.891,350.052 118.891,357.192 113.576,357.192 
		113.576,358.848 113.576,360.213 113.576,361.638 115.228,361.638 115.228,364.323 115.228,368.007 115.228,369.778 
		115.228,373.952 115.228,375.723 115.228,379.898 115.228,381.668 115.228,385.843 115.228,387.614 115.228,391.788 
		115.228,393.156 107.757,393.156 107.757,383.512 107.757,380.762 107.757,379.377 107.757,379.013 96.693,379.013 96.693,372.43 
		95.125,372.43 95.125,379.013 91.253,379.013 91.253,375.67 84.43,375.67 84.43,379.013 80.65,379.013 80.65,379.377 
		80.65,380.762 80.65,383.512 80.65,393.156 80.65,426.802 80.65,424.575 416.841,424.575 416.841,393.156 415.569,393.156 
		415.569,392.06 415.569,390.697 415.569,387.484 415.569,386.121 415.569,382.908 415.569,381.544 415.569,378.708 
		415.569,376.642 416.841,376.642 416.841,375.545 416.841,374.494 416.841,373.22 	"/>
	<g>
		<g>
			<path style="fill:#A1C3CE;" d="M223.227,390.154h50.352v-22.251c23.918-4.213,45.856-13.985,64.547-27.95l17.656,17.656
				l35.604-35.604l-18.312-18.312c12.801-18.746,21.379-40.531,24.767-64.006h26.3v-50.351h-27.289
				c-4.243-22.506-13.457-43.201-26.412-61.048l17.822-17.822l-35.603-35.604l-18.054,18.054
				c-18.756-13.192-40.612-22.168-64.264-25.811V42.106h-50.352v25.551c-23.074,4.125-44.297,13.422-62.529,26.669l-19.674-19.673
				l-35.603,35.603l19.919,19.919c-12.835,18.266-21.678,39.463-25.495,62.4h-27.18v50.351h27.18
				c3.803,22.857,12.593,43.992,25.356,62.215l-16.655,16.656l35.604,35.603l16.363-16.363
				c19.118,13.936,41.558,23.482,65.955,27.304V390.154z M161.321,217.751c0-47.305,38.348-85.653,85.652-85.653
				c47.306,0,85.654,38.348,85.654,85.653c0,47.305-38.348,85.653-85.654,85.653C199.669,303.404,161.321,265.056,161.321,217.751z"
				/>
			<path style="fill:#B8D5E0;" d="M246.783,266.391c-27.759,0-50.261-22.503-50.261-50.26c0-27.758,22.502-50.261,50.261-50.261
				c27.757,0,50.26,22.502,50.26,50.261C297.043,243.888,274.541,266.391,246.783,266.391z"/>
		</g>
		
			<ellipse transform="matrix(0.1351 -0.9908 0.9908 0.1351 -0.1314 432.1101)" style="fill:none;stroke:#FEFEFE;stroke-width:1.0871;stroke-miterlimit:10;" cx="247.448" cy="216.13" rx="115.766" ry="115.766"/>
	</g>
	<path style="fill:#3F485B;" d="M102.533,81.339c0,0-14.445-7.143-18.951-21.933c5.372-2.502,5.372-2.502,5.372-2.502
		s2.678,11.306,18.79,21.404C102.533,81.339,102.533,81.339,102.533,81.339z"/>
	<path style="fill:#3F485B;" d="M76.604,300.895c0,0-8.041,13.965-23.085,17.529c-2.158-5.519-2.158-5.519-2.158-5.519
		s11.452-1.959,22.548-17.401C76.604,300.895,76.604,300.895,76.604,300.895z"/>
	<path style="fill:#3F485B;" d="M433.212,94.92c0,0-7.237,14.398-22.055,18.808c-2.467-5.388-2.467-5.388-2.467-5.388
		s11.323-2.604,21.526-18.651C433.212,94.92,433.212,94.92,433.212,94.92z"/>
	<path style="fill:#BC8804;" d="M177.903,40.58c0,0,0.945,16.087-9.673,27.324c-4.834-3.428-4.834-3.428-4.834-3.428
		s8.497-7.924,9.294-26.923C177.903,40.58,177.903,40.58,177.903,40.58z"/>
	<path style="fill:#FFFFFF;" d="M368.926,353.535c0,0-8.017-13.979-3.522-28.771c5.855,0.914,5.855,0.914,5.855,0.914
		s-4.074,10.881,3.682,28.243C368.926,353.535,368.926,353.535,368.926,353.535z"/>
	<path style="fill:#BC8804;" d="M429.754,257.507c0,0,13.176,9.277,15.358,24.582c-5.692,1.648-5.692,1.648-5.692,1.648
		s-0.91-11.583-15.28-24.036C429.754,257.507,429.754,257.507,429.754,257.507z"/>
	<path style="fill:#FFFFFF;" d="M71.611,160.688c0,0,10.15-12.516,25.569-13.653c1.257,5.791,1.257,5.791,1.257,5.791
		s-11.618,0.121-25.018,13.612C71.611,160.688,71.611,160.688,71.611,160.688z"/>
	<path style="fill:#FFFFFF;" d="M333.128,114.383c0,0,10.15-12.516,25.569-13.653c1.258,5.791,1.258,5.791,1.258,5.791
		s-11.618,0.121-25.018,13.612C333.128,114.383,333.128,114.383,333.128,114.383z"/>
	<g>
		<g>
			
				<ellipse transform="matrix(0.1612 -0.9869 0.9869 0.1612 27.2973 338.7453)" style="fill:#651D13;" cx="212.935" cy="153.313" rx="20.689" ry="20.689"/>
			<path style="fill:#3F485B;" d="M191.748,359.395l-3.187,104.548l48.063,4.146c13.13,1.013,27.18,0.753,41.535-0.505l37.473-4.941
				l-14.985-110.115L191.748,359.395z"/>
			<path style="fill:none;stroke:#609ACE;stroke-width:0.9605;stroke-miterlimit:10;" d="M268.563,357.295
				c0,0,1.607,33.782-10.139,43.419c-7.408-43.367-7.408-43.367-7.408-43.367"/>
			<path style="fill:none;stroke:#609ACE;stroke-width:0.9605;stroke-miterlimit:10;" d="M227.296,364.819
				c0,0-0.844,24.495-24.575,25.459"/>
			
				<line style="fill:none;stroke:#609ACE;stroke-width:0.9605;stroke-miterlimit:10;" x1="202.338" y1="366.984" x2="198.724" y2="464.63"/>
			<path style="fill:none;stroke:#609ACE;stroke-width:0.9605;stroke-miterlimit:10;" d="M282.442,360.238
				c0,0,2.156,21.257,21.986,24.12"/>
			<path style="fill:#DD8372;" d="M315.102,223.393l18.31,21.201c0,0,16.142-29.634,19.756-42.644
				c3.614-13.01,4.819-30.736,3.855-38.135c-0.964-7.399,6.987-9.086,10.119-3.545c3.132,5.541,3.373,17.106,3.373,17.106
				s12.145-3.855,12.868,5.782c0.723,9.637-2.749,32.525-6.122,38.548c-3.373,6.023-15.419,45.294-21.442,61.677
				c-6.023,16.383-18.069,22.888-34.693,7.951c-16.624-14.937-28.188-37.584-28.188-37.584L315.102,223.393z"/>
			<path style="fill:none;stroke:#9E4736;stroke-width:0.924;stroke-miterlimit:10;" d="M333.413,244.594
				c0,0-4.578,6.505-8.673,17.347"/>
			<path style="fill:#CC685A;" d="M345.941,278.679c-10.002,0-18.512,6.296-21.847,15.131c15.092,11.633,26.067,4.964,31.725-10.427
				c0.245-0.666,0.503-1.383,0.767-2.121C353.391,279.622,349.779,278.679,345.941,278.679z"/>
			<path style="fill:#DD8372;" d="M399.748,205.892c0,3.538-5.735,6.405-12.811,6.405c-7.075,0-12.811-2.868-12.811-6.405
				c0-3.537,5.735-6.405,12.811-6.405C394.013,199.487,399.748,202.355,399.748,205.892z"/>
			<path style="fill:#CC685A;" d="M323.487,233.102l-8.385-9.709l-22.165,30.357c0,0,6.668,13.05,17.15,25.871
				C308.107,257.186,318.016,240.465,323.487,233.102z"/>
			<polygon style="fill:#3F485B;" points="222.828,166.504 217.588,190.814 251.094,244.594 268.586,199.917 254.67,166.504 			"/>
			<path style="fill:#3F485B;" d="M270.754,162.077c0,0,15.919,5.662,35.916,36.5c17.106,25.538,17.106,25.538,17.106,25.538
				s-19.033,10.36-28.67,29.634C275.831,218.092,270.754,162.077,270.754,162.077z"/>
			<path style="fill:#609ACE;" d="M316.283,212.929c-7.393,4.091-20.791,12.438-29.12,23.135c2.332,6.193,4.968,12.182,7.943,17.685
				c9.637-19.274,28.67-29.634,28.67-29.634S323.768,224.104,316.283,212.929z"/>
			<circle style="fill:#E7B142;" cx="219.667" cy="134.246" r="10.601"/>
			<path style="fill:#E7B142;" d="M250.203,163.703l0.891,5.842l-3.42,54.329l6.957,135.521c0,0,23.852,6.505,56.377,1.807
				c-11.203-110.946-7.228-141.303-20.238-165.516c-13.01-24.213-20.015-33.609-20.015-33.609S256.979,161.354,250.203,163.703z"/>
			<path style="fill:#E7B142;" d="M222.828,166.504c0,0-19.876-6.891-39.753,1.388c-2.53,65.74-2.53,65.74-2.53,65.74
				s13.733,87.817,2.891,135.882c50.956,2.53,71.193-10.119,71.193-10.119l-6.957-135.521L222.828,166.504z"/>
			<path style="fill:#BC8804;" d="M249.466,258.798c16.616-1.411,34.698-3.668,52.55-7.229c-0.628-8.122-1.25-15.133-1.984-21.308
				c-10.533,1.974-29.041,5.076-51.655,7.323L249.466,258.798z"/>
			<path style="fill:#BC8804;" d="M249.466,258.798l-1.089-21.214c-19.979,1.985-43.164,3.3-66.892,2.58
				c0.658,4.803,1.581,12.001,2.513,20.736C194.486,261.145,219.599,261.334,249.466,258.798z"/>
			<path style="fill:#BC8804;" d="M248.377,237.584l-0.704-13.71l-24.845-57.37c0,0-2.794-0.968-7.334-1.743L248.377,237.584z"/>
			<path style="fill:#BC8804;" d="M250.203,163.703l0.891,5.842l-3.42,54.329l0.704,13.709v0c0,0,9.251-25.687,10.015-75.333
				C255.398,162.495,252.424,162.933,250.203,163.703z"/>
			<path style="fill:#651D13;" d="M202.541,111.118c0,0-3.866,20.482,21.823,30.119c9.306-11.324,5.082-48.151,5.082-48.151
				L202.541,111.118z"/>
			<path style="fill:#7C5404;" d="M284.4,96.462c0,0-6.219,3.889-20.783,4.692c-2.657-8.989-2.657-8.989-2.657-8.989
				S270.731,87.024,284.4,96.462z"/>
			<path style="fill:#DD8372;" d="M222.105,126.3l0.723,40.204c0,0,8.493,9.125,20.238,10.119c11.745,0.994,7.137-12.92,7.137-12.92
				l-4.608-20.238L222.105,126.3z"/>
			<path style="fill:#300D09;" d="M245.595,143.465l-2.371-1.732l-13.779-1.725c0,0,5.257,12.679,19.156,16.662L245.595,143.465z"/>
			<path style="fill:#DD8372;" d="M266.194,82.933c0,0,2.891,12.769,2.409,25.056c-0.482,12.287,0,21.683-0.482,28.429
				c-0.482,6.746-3.614,14.937-7.469,14.696s-35.175-2.409-38.548-24.815c-2.438-10.937-2.438-11.805-2.438-11.805
				s8.22-23.852,15.207-28.429C241.861,81.488,266.194,82.933,266.194,82.933z"/>
			<path style="fill:#7A251A;" d="M263.303,119.614c0,0,2.349,4.066,2.71,9.306c-3.795,0.542-7.589,0.452-7.589,0.452l5.319-1.841
				C263.743,127.53,263.845,125.215,263.303,119.614z"/>
			<path style="fill:#FFF2DD;" d="M254.54,116.452c0,0-4.617-12.197-18.571-5.421C238.187,116.452,245.776,119.704,254.54,116.452z"
				/>
			<path style="fill:#651D13;" d="M250.344,111.098c-2.907-2.14-7.509-3.401-14.375-0.067c1.627,3.977,6.151,6.775,11.904,6.705
				c1.544-1.473,2.511-3.545,2.511-5.847C250.384,111.622,250.369,111.359,250.344,111.098z"/>
			<path style="fill:#651D13;" d="M254.269,103.532c0,0-15.54-4.337-23.852,1.897c2.62-5.421,13.462-10.39,23.852-6.595
				C255.172,101.364,254.269,103.532,254.269,103.532z"/>
			<path style="fill:#CC685A;" d="M249.873,121.903c0,0.208-0.169,0.377-0.377,0.377s-0.377-0.169-0.377-0.377
				s0.169-0.377,0.377-0.377S249.873,121.695,249.873,121.903z"/>
			<path style="fill:#CC685A;" d="M253.156,121.918c0,0.208-0.169,0.377-0.377,0.377s-0.377-0.169-0.377-0.377
				c0-0.208,0.169-0.377,0.377-0.377S253.156,121.71,253.156,121.918z"/>
			<path style="fill:#CC685A;" d="M252.258,125.651c0,0.208-0.169,0.377-0.377,0.377s-0.377-0.169-0.377-0.377
				c0-0.208,0.169-0.377,0.377-0.377S252.258,125.443,252.258,125.651z"/>
			<path style="fill:#CC685A;" d="M254.028,119.357c-0.134-0.159-0.113-0.397,0.046-0.531c0.159-0.134,0.397-0.113,0.531,0.046
				c0.134,0.159,0.113,0.397-0.046,0.531C254.4,119.537,254.162,119.517,254.028,119.357z"/>
			<path style="fill:#CC685A;" d="M256.061,121.626c-0.134-0.159-0.113-0.397,0.046-0.531c0.159-0.134,0.397-0.113,0.531,0.046
				c0.134,0.159,0.113,0.397-0.046,0.531C256.432,121.806,256.194,121.785,256.061,121.626z"/>
			<path style="fill:#CC685A;" d="M266.292,121.602c-0.134-0.159-0.113-0.397,0.046-0.531c0.159-0.134,0.397-0.113,0.531,0.046
				c0.134,0.159,0.113,0.397-0.046,0.531C266.664,121.782,266.426,121.761,266.292,121.602z"/>
			<path style="fill:#CC685A;" d="M257.904,123.918c-0.134-0.159-0.113-0.397,0.046-0.531c0.159-0.134,0.397-0.113,0.531,0.046
				c0.134,0.159,0.113,0.397-0.046,0.531C258.275,124.098,258.037,124.077,257.904,123.918z"/>
			<path style="fill:#CC685A;" d="M265.016,118.979c-0.134-0.159-0.113-0.397,0.046-0.531c0.159-0.134,0.397-0.113,0.531,0.046
				c0.134,0.159,0.113,0.397-0.046,0.531C265.388,119.159,265.15,119.138,265.016,118.979z"/>
			<path style="fill:#651D13;" d="M268.586,108.478c-3.533,2.519-4.56,7.16-4.56,7.16c1.979,0.411,3.395,0.17,4.385-0.25
				C268.442,113.197,268.496,110.895,268.586,108.478z"/>
			<path style="fill:#651D13;" d="M268.375,98.144c-1.796,0.633-3.807,1.503-3.807,1.503v3.795l4.048-0.831
				C268.57,101.09,268.486,99.593,268.375,98.144z"/>
			<path style="fill:none;stroke:#7A251A;stroke-width:0.5471;stroke-miterlimit:10;" d="M263.665,133.798
				c0,0-8.493,0.09-14.727-2.349"/>
			<path style="fill:#CC685A;" d="M247.673,124.673c0,1.946-3.175,3.524-7.092,3.524c-3.917,0-7.092-1.578-7.092-3.524
				c0-1.946,3.175-3.523,7.092-3.523C244.498,121.15,247.673,122.727,247.673,124.673z"/>
			<ellipse style="fill:#DD8372;" cx="215.645" cy="119.704" rx="8.719" ry="10.029"/>
			<path style="fill:#CC685A;" d="M210.948,115.362c-1.23,0-2.398,0.296-3.459,0.824c-0.358,1.096-0.562,2.278-0.562,3.518
				c0,5.538,3.903,10.029,8.719,10.029c1.23,0,2.398-0.296,3.459-0.825c0.358-1.096,0.562-2.278,0.562-3.518
				C219.667,119.852,215.763,115.362,210.948,115.362z"/>
			<path style="fill:none;stroke:#651D13;stroke-width:1.0942;stroke-miterlimit:10;" d="M235.969,111.031
				c0,0,12.632-6.788,18.571,5.421"/>
			<ellipse style="fill:#DD8372;" cx="388.582" cy="178.774" rx="14.456" ry="7.228"/>
			<path style="fill:#DD8372;" d="M403.038,188.652c0,3.992-6.472,7.228-14.456,7.228c-7.983,0-14.455-3.236-14.455-7.228
				c0-3.992,6.472-7.228,14.455-7.228C396.566,181.424,403.038,184.66,403.038,188.652z"/>
			<path style="fill:#DD8372;" d="M403.038,197.774c0,3.992-6.472,7.228-14.456,7.228c-7.983,0-14.455-3.236-14.455-7.228
				c0-3.992,6.472-7.228,14.455-7.228C396.566,190.546,403.038,193.782,403.038,197.774z"/>
			<path style="fill:none;stroke:#9E4736;stroke-width:0.924;stroke-miterlimit:10;" d="M370.515,177.376
				c0,0,9.155,18.338-1.686,26.877"/>
			<path style="fill:none;stroke:#9E4736;stroke-width:0.924;stroke-miterlimit:10;" d="M399.127,183.713c0,0-19.702,6.096-25-4.939
				c-0.721-1.398,0.622-2.1,0.622-2.1"/>
			<path style="fill:none;stroke:#9E4736;stroke-width:0.924;stroke-miterlimit:10;" d="M399.793,193.213c0,0-9.281,4.995-19.882,0
				c-4.096-2.586-0.471-9.358-0.471-9.358"/>
			<path style="fill:none;stroke:#9E4736;stroke-width:0.924;stroke-miterlimit:10;" d="M398.418,203.063
				c0,0-10.228,4.22-21.595-1.096c-2.935-1.703,3.089-8.754,3.089-8.754"/>
			<path style="fill:none;stroke:#9E4736;stroke-width:0.924;stroke-miterlimit:10;" d="M380.456,211.415
				c0,0-9.613-4.132-3.634-9.448"/>
			
				<line style="fill:none;stroke:#9E4736;stroke-width:0.924;stroke-miterlimit:10;" x1="365.215" y1="210.158" x2="361.36" y2="219.056"/>
			<path style="opacity:0.48;fill:#651D13;" d="M268.563,101.183c-0.452-9.781-2.369-18.25-2.369-18.25s-24.334-1.446-31.32,3.132
				c-1.936,1.269-3.967,4.021-5.892,7.332l-26.441,17.721c0,0-0.781,4.186,0.723,9.659
				C222.648,102.671,254.766,100.992,268.563,101.183z"/>
			<path style="opacity:0.31;fill:#FFF6E7;" d="M251.658,149.957c4.413,0.849,7.872,1.088,8.995,1.158
				c3.855,0.241,6.987-7.951,7.469-14.697c0.482-6.746,0-16.142,0.482-28.429c0.482-12.287-2.409-25.056-2.409-25.056
				s-1.048-0.062-2.756-0.119c-12.665,1.626-26.736,4.714-34.457,10.583C228.982,93.397,227.791,134.658,251.658,149.957z"/>
			<g>
				<path style="fill:#E7B142;" d="M277.288,88.17c0,0-1.665-28.192-31.448-32.905c-17.228-3.005-41.708,6.782-45.645,28.756
					c-3.09,13.799,0.476,21.703,0.476,21.703S234.456,86.201,277.288,88.17z"/>
				<path style="fill:#CC9636;" d="M270.754,86.696c0,0-1.333-26.989-30.434-35.17c-14.93-3.122-19.939,7.554-19.939,7.554
					s30.223,3.194,34.22,29.944C268.531,87.397,270.754,86.696,270.754,86.696z"/>
				<path style="opacity:0.69;fill:#FFF6E7;" d="M240.32,51.526c-2.093-0.438-3.983-0.597-5.7-0.56
					c-0.645,1.471-0.218,3.15,2.963,4.689c8.079,3.911,29.076,13.498,27.343,32.049c4.814-0.693,5.828-1.008,5.828-1.008
					S269.421,59.707,240.32,51.526z"/>
				<path style="fill:#BC8804;" d="M215.861,61.568c-7.748,4.893-13.863,12.391-15.666,22.452
					c-3.09,13.799,0.476,21.703,0.476,21.703s6.549-3.782,17.528-7.848c3.747-1.903,8.006-4.09,12.882-6.624
					C203.06,88.293,211.952,68.367,215.861,61.568z"/>
				<path style="fill:#D39831;" d="M220.292,101.782l-17.751,9.336c-2.231,1.174-4.977,0.002-5.674-2.421l0,0
					c-0.53-1.843,0.324-3.798,2.04-4.654c7.67-3.827,29.248-13.829,51.704-17.322C252.675,90.917,220.292,101.782,220.292,101.782z"
					/>
				<path style="fill:#A57305;" d="M220.292,101.782c0,0,38.014-13.636,64.108-5.32c3.434-3.742-2.354-11.75-20.205-12.066
					C246.344,84.079,220.292,101.782,220.292,101.782z"/>
			</g>
			<path style="fill:none;stroke:#A57305;stroke-width:0.9711;stroke-miterlimit:10;" d="M247.673,223.874
				c0,0,5.752,102.393,6.957,135.521"/>
			<path style="fill:#BC8804;" d="M183.691,258.068c7.661-16.02,11.31-37.446,11.31-37.446l-14.321,13.896
				C181.084,237.212,182.349,245.933,183.691,258.068z"/>
			<path style="fill:#3F485B;" d="M133.203,219.538c0,0,3.614,25.779,36.862,32.886
				C170.547,233.993,165.247,213.274,133.203,219.538z"/>
			<path style="fill:#DD8372;" d="M172.474,239.775l-33.007,38.307c0,0,4.818,5.782,16.503,15.178
				c11.685,9.396,19.635,12.528,23.972,13.251c4.337,0.723,7.383,0,7.383,0v7.71c0,0,23.697-0.241,26.588,0
				c2.891,0.241,3.132,5.059-3.132,6.264c-6.264,1.205-11.805,2.168-11.805,2.168s14.51,2.168,16.892,2.168s2.864,6.264-4.605,6.505
				c-2.409,3.855-6.505,6.746-10.842,6.746c-4.819,4.819-5.541,5.782-16.624,4.578c-11.083-1.205-19.997-10.601-31.802-18.31
				c-11.805-7.71-42.403-24.333-50.594-31.32c-8.191-6.987-4.577-26.984,6.987-40.596s34.934-38.187,34.934-38.187L172.474,239.775z
				"/>
			<path style="fill:#CC685A;" d="M164.242,249.329l8.232-9.554l-29.152-25.538c0,0-5.702,5.996-12.864,13.703
				C138.706,229.851,155.218,235.295,164.242,249.329z"/>
			<path style="fill:#3F485B;" d="M183.075,167.892c0,0-13.371,7.918-22.768,20.205s-27.104,31.441-27.104,31.441
				s28.188,1.807,36.862,32.886c24.936-31.802,24.936-31.802,24.936-31.802S215.239,170.816,183.075,167.892z"/>
			<path style="fill:#609ACE;" d="M182.867,236.097c-8.949-20.934-29.533-27.955-37.626-29.95
				c-6.514,7.415-12.038,13.391-12.038,13.391s28.188,1.807,36.862,32.886C175.392,245.63,179.573,240.298,182.867,236.097z"/>
			<path style="fill:#CC685A;" d="M112.966,290.129c0-9.554-5.619-17.791-13.731-21.599c-3.481,10.105-3.106,19.993,2.166,24.49
				c2.025,1.727,5.423,4.045,9.565,6.67C112.249,296.763,112.966,293.53,112.966,290.129z"/>
			<path style="fill:none;stroke:#9E4736;stroke-width:0.924;stroke-miterlimit:10;" d="M139.468,278.083
				c0,0-6.505-7.806-15.178-11.251"/>
			<path style="fill:none;stroke:#9E4736;stroke-width:0.924;stroke-miterlimit:10;" d="M211.263,331.327c0,0-7.71,0.723-13.733,0"
				/>
			<path style="fill:none;stroke:#9E4736;stroke-width:0.924;stroke-miterlimit:10;" d="M200.422,338.073c0,0-6.613,0.707-9.878,0"
				/>
			<polygon style="fill:#BC8804;" points="270.754,256.576 276.142,349.493 296.31,353.824 287.163,252.424 			"/>
			<polygon style="fill:#BC8804;" points="230.267,254.713 238.112,353.824 223.708,359.395 215.645,258.068 			"/>
			<path style="fill:#A57305;" d="M253.878,344.741c-23.245,13.072-54.318,14.179-68.484,13.907
				c-0.538,3.792-1.183,7.432-1.957,10.865c50.956,2.53,71.194-10.119,71.194-10.119L253.878,344.741z"/>
			<path style="fill:#A57305;" d="M311.006,361.202c-0.386-3.825-0.753-7.545-1.104-11.181c-36.693,2.577-56.025-5.28-56.025-5.28v0
				l0.752,14.654C254.63,359.395,278.482,365.9,311.006,361.202z"/>
			
				<line style="fill:none;stroke:#609ACE;stroke-width:0.9605;stroke-miterlimit:10;" x1="258.424" y1="400.714" x2="264.381" y2="467.84"/>
			<path style="fill:none;stroke:#A57305;stroke-width:0.9711;stroke-miterlimit:10;" d="M195.63,173.325c0,0,13.889-3.328,24.036,0
				"/>
			<path style="fill:none;stroke:#A57305;stroke-width:0.9711;stroke-miterlimit:10;" d="M258.102,172.586
				c0,0,9.102-3.178,18.867-1.039"/>
		</g>
		<path style="fill:#FEFEFE;" d="M261.681,219.483l29.161-3.831c0,0,0.784,2.862,1.005,6.385
			c-29.284,3.963-29.284,3.963-29.284,3.963S262.121,221.553,261.681,219.483z"/>
	</g>
</g>
</svg>
